# xmcd
#
# Track frame offsets:
#	150
#	17770
#	30820
#	47812
#	62360
#	79287
#	88877
#	106602
#	124445
#	138412
#	152905
#
# Disc length: 2296 seconds
#
# Revision: 1
# Processed by: cddbd v1.5.1PL2 Copyright (c) Steve Scherf et al.
# Submitted via: audiograbber 1.83.01
#
DISCID=8608f60b
DTITLE=M.G. Grace - My Way
DYEAR=2005
DGENRE=Rock and Roll
TTITLE0=Scotland
TTITLE1=Burning Love
TTITLE2=The Game
TTITLE3=Only Wana Be With You
TTITLE4=Thank you
TTITLE5=All Shook Up
TTITLE6=Let's call it Rock n' Roll
TTITLE7=Caroline
TTITLE8=Song 4 Yves
TTITLE9=Suspicious Minds
TTITLE10=My Way
EXTD=
EXTT0=
EXTT1=
EXTT2=
EXTT3=
EXTT4=
EXTT5=
EXTT6=
EXTT7=
EXTT8=
EXTT9=
EXTT10=
PLAYORDER=
